<?xml version="1.0" encoding="UTF-8"?><svg id="Layer_1" xmlns="http://www.w3.org/2000/svg" xmlns:xlink="http://www.w3.org/1999/xlink" viewBox="0 0 116.91 31.37"><defs><style>.cls-1{fill:url(#linear-gradient);}.cls-2{fill:#023e73;}.cls-3{fill:#f4cc4d;}</style><linearGradient id="linear-gradient" x1="23.52" y1="2.09" x2="7.83" y2="29.27" gradientUnits="userSpaceOnUse"><stop offset="0" stop-color="#0f64b6"/><stop offset="1" stop-color="#04458e"/></linearGradient></defs><path class="cls-1" d="M21.03,20.1c-2.55,0-4.61-2.06-4.61-4.61s2.06-4.61,4.61-4.61,4.61,2.06,4.61,4.61c0,2.55-2.06,4.61-4.61,4.61ZM29.56,22.99l-2.94-2.94c.98-1.23,1.57-2.79,1.57-4.51.05-3.97-3.19-7.21-7.16-7.21s-7.21,3.24-7.21,7.21,3.24,7.21,7.21,7.21c1.32,0,2.55-.34,3.63-.98l3.48,3.48c-2.89,3.73-7.4,6.13-12.45,6.13C7.01,31.37,0,24.36,0,15.69S7.01,0,15.69,0s15.69,7.01,15.69,15.69c0,2.65-.64,5.15-1.81,7.3ZM13.09,8.28h-7.99c-.69,0-1.27.59-1.27,1.27v12.06c0,.69.59,1.27,1.27,1.27h.05c.69,0,1.27-.59,1.27-1.27v-10.69h6.67c.74,0,1.32-.59,1.32-1.32s-.59-1.32-1.32-1.32Z"/><path class="cls-3" d="M10.05,13.58c1.18,0,2.11.93,2.11,2.11s-.93,2.11-2.11,2.11-2.11-.93-2.11-2.11.93-2.11,2.11-2.11Z"/><path class="cls-2" d="M68.8,12.01c-1.73,0-3.05.86-3.82,2.09v-1.87h-2.23v15.88h2.23v-6.78c.77,1.23,2.09,2.05,3.82,2.05,2.91,0,5.05-2.37,5.05-5.69,0-3.32-2.18-5.69-5.05-5.69ZM68.3,21.29c-1.91,0-3.37-1.46-3.37-3.55s1.46-3.55,3.37-3.55,3.28,1.46,3.28,3.55-1.36,3.55-3.28,3.55Z"/><path class="cls-2" d="M53.05,8.43c-4.41,0-7.79,3.33-7.79,7.75s3.38,7.75,7.79,7.75c1.27,0,2.5-.29,3.58-.83l2.35,3.09,1.86-1.37-2.3-3.04c1.42-1.37,2.3-3.38,2.3-5.59-.05-4.41-3.43-7.75-7.79-7.75ZM53.05,21.62c-3.04,0-5.34-2.3-5.34-5.44s2.3-5.44,5.34-5.44,5.29,2.3,5.29,5.44-2.3,5.44-5.29,5.44Z"/><polygon class="cls-2" points="35.1 23.68 35.15 23.68 37.55 23.68 37.55 17.3 44.36 17.3 44.36 15 37.55 15 37.55 11.03 44.9 11.03 44.9 8.73 35.1 8.73 35.1 23.68"/><path class="cls-2" d="M114.68,12.24v1.87c-.77-1.27-2.09-2.09-3.82-2.09-2.87,0-5.05,2.37-5.05,5.69s2.14,5.69,5.05,5.69c1.73,0,3-.82,3.82-2.05v1.82h2.23v-10.92h-2.23ZM111.36,21.29c-1.87,0-3.28-1.46-3.28-3.55s1.36-3.55,3.28-3.55,3.37,1.46,3.37,3.55-1.46,3.55-3.37,3.55Z"/><path class="cls-2" d="M102.68,7.32c-.82,0-1.46.59-1.46,1.36,0,.82.64,1.41,1.46,1.41.86,0,1.46-.59,1.46-1.41,0-.77-.59-1.36-1.46-1.36Z"/><rect class="cls-2" x="101.59" y="12.28" width="2.23" height="10.92"/><path class="cls-2" d="M96.77,14.09c-.82-1.24-2.12-2.03-3.82-2.03-2.87,0-5.05,2.37-5.05,5.69s2.14,5.69,5.05,5.69c1.73,0,3-.82,3.82-2.05v1.82h2.23V7.87h-2.23v6.22ZM93.45,21.29c-1.87,0-3.28-1.46-3.28-3.55s1.36-3.55,3.28-3.55,3.37,1.46,3.37,3.55-1.46,3.55-3.37,3.55Z"/><path class="cls-2" d="M80.7,12.01c-3.32,0-5.64,2.41-5.64,5.73s2.37,5.69,5.69,5.69c2.32,0,4.41-1.14,5.28-3.59h-2.32c-.5,1.09-1.59,1.64-2.91,1.64-1.82,0-3.23-1.09-3.41-3.14h8.87c.18-3.59-2.05-6.32-5.55-6.32ZM77.47,16.51c.36-1.46,1.55-2.55,3.23-2.55s2.78,1.05,3.14,2.55h-6.37Z"/></svg>